<svg xmlns="http://www.w3.org/2000/svg" viewBox="0 0 320 180" role="img" aria-label="">
  <defs><linearGradient id="g4" x1="0" y1="0" x2="1" y2="1">
    <stop offset="0" stop-color="#c7b5fd"/><stop offset="1" stop-color="#a78bfa"/>
  </linearGradient></defs>
  <rect width="320" height="180" fill="url(#g4)"/>
  <circle cx="270" cy="34" r="58" fill="#ffffff" opacity="0.12"/>
  <circle cx="36" cy="170" r="46" fill="#000000" opacity="0.06"/>
  <g fill="#ffffff" opacity="0.5"><circle cx="52" cy="40" r="2.6"/><circle cx="68" cy="30" r="1.6"/><circle cx="250" cy="150" r="2.3"/><circle cx="236" cy="44" r="1.6"/></g>
  <circle cx="160" cy="84" r="40" fill="#ffffff" opacity="0.16"/>
  <path d="M148 90 H172 L168 106 H152 Z" fill="#e07a5f" stroke="#c25b40" stroke-width="2"/>
  <path d="M160 90 C150 78 150 66 160 60 C170 66 170 78 160 90 Z" fill="#4caf6e"/>
  <path d="M160 88 C148 84 140 74 142 66 C152 66 160 76 160 88 Z" fill="#3f9d61"/>
  <path d="M160 88 C172 84 180 74 178 66 C168 66 160 76 160 88 Z" fill="#5ec27a"/>
  <g>
    <rect x="130" y="150" width="60" height="8" rx="3" fill="#fbf6ee"/>
    <rect x="135" y="143" width="50" height="8" rx="3" fill="#ffffff"/>
    <rect x="130" y="156.4" width="60" height="2" rx="1" fill="#ffb300" opacity="0.85"/>
    <rect x="135" y="149.4" width="50" height="2" rx="1" fill="#3257f0" opacity="0.8"/>
  </g>
</svg>
