<svg xmlns="http://www.w3.org/2000/svg" viewBox="0 0 320 180" role="img" aria-label="">
  <defs><linearGradient id="g7" x1="0" y1="0" x2="1" y2="1">
    <stop offset="0" stop-color="#ff8a9a"/><stop offset="1" stop-color="#ff5d73"/>
  </linearGradient></defs>
  <rect width="320" height="180" fill="url(#g7)"/>
  <circle cx="270" cy="34" r="58" fill="#ffffff" opacity="0.12"/>
  <circle cx="36" cy="170" r="46" fill="#000000" opacity="0.06"/>
  <g fill="#ffffff" opacity="0.5"><circle cx="52" cy="40" r="2.6"/><circle cx="68" cy="30" r="1.6"/><circle cx="250" cy="150" r="2.3"/><circle cx="236" cy="44" r="1.6"/></g>
  <circle cx="160" cy="84" r="40" fill="#ffffff" opacity="0.16"/>
  <circle cx="152" cy="76" r="17" fill="#ffffff" fill-opacity="0.2" stroke="#ffffff" stroke-width="5"/>
  <circle cx="152" cy="76" r="17" fill="none" stroke="#e2e8f0" stroke-width="1.5"/>
  <rect x="163" y="88" width="9" height="26" rx="4.5" transform="rotate(-45 167 100)" fill="#e2e8f0" stroke="#cbd5e1" stroke-width="1.5"/>
  <path d="M146 70 a10 10 0 0 1 8 -5" fill="none" stroke="#ffffff" stroke-width="2.5" opacity="0.8"/>
  <g>
    <rect x="130" y="150" width="60" height="8" rx="3" fill="#fbf6ee"/>
    <rect x="135" y="143" width="50" height="8" rx="3" fill="#ffffff"/>
    <rect x="130" y="156.4" width="60" height="2" rx="1" fill="#ffb300" opacity="0.85"/>
    <rect x="135" y="149.4" width="50" height="2" rx="1" fill="#3257f0" opacity="0.8"/>
  </g>
</svg>
