<svg xmlns="http://www.w3.org/2000/svg" viewBox="0 0 320 180" role="img" aria-label="">
  <defs><linearGradient id="g10" x1="0" y1="0" x2="1" y2="1">
    <stop offset="0" stop-color="#a486e6"/><stop offset="1" stop-color="#7b54d3"/>
  </linearGradient></defs>
  <rect width="320" height="180" fill="url(#g10)"/>
  <circle cx="270" cy="34" r="58" fill="#ffffff" opacity="0.12"/>
  <circle cx="36" cy="170" r="46" fill="#000000" opacity="0.06"/>
  <g fill="#ffffff" opacity="0.5"><circle cx="52" cy="40" r="2.6"/><circle cx="68" cy="30" r="1.6"/><circle cx="250" cy="150" r="2.3"/><circle cx="236" cy="44" r="1.6"/></g>
  <circle cx="160" cy="84" r="40" fill="#ffffff" opacity="0.16"/>
  <polygon points="160,60 192,74 160,88 128,74" fill="#20304f"/>
  <path d="M146 80 V96 Q160 104 174 96 V80" fill="#2b3e63"/>
  <circle cx="160" cy="74" r="3.2" fill="#ffd54a"/>
  <path d="M160 74 L188 74 L188 96" fill="none" stroke="#ffd54a" stroke-width="2"/>
  <circle cx="188" cy="98" r="3" fill="#ffd54a"/>
  <g>
    <rect x="130" y="150" width="60" height="8" rx="3" fill="#fbf6ee"/>
    <rect x="135" y="143" width="50" height="8" rx="3" fill="#ffffff"/>
    <rect x="130" y="156.4" width="60" height="2" rx="1" fill="#ffb300" opacity="0.85"/>
    <rect x="135" y="149.4" width="50" height="2" rx="1" fill="#3257f0" opacity="0.8"/>
  </g>
</svg>
