<svg xmlns="http://www.w3.org/2000/svg" viewBox="0 0 320 180" role="img" aria-label="">
  <defs><linearGradient id="g3" x1="0" y1="0" x2="1" y2="1">
    <stop offset="0" stop-color="#ffc081"/><stop offset="1" stop-color="#ff9f43"/>
  </linearGradient></defs>
  <rect width="320" height="180" fill="url(#g3)"/>
  <circle cx="270" cy="34" r="58" fill="#ffffff" opacity="0.12"/>
  <circle cx="36" cy="170" r="46" fill="#000000" opacity="0.06"/>
  <g fill="#ffffff" opacity="0.5"><circle cx="52" cy="40" r="2.6"/><circle cx="68" cy="30" r="1.6"/><circle cx="250" cy="150" r="2.3"/><circle cx="236" cy="44" r="1.6"/></g>
  <circle cx="160" cy="84" r="40" fill="#ffffff" opacity="0.16"/>
  <ellipse cx="158" cy="84" rx="30" ry="23" fill="#ffffff" stroke="#e2e8f0" stroke-width="2"/>
  <circle cx="170" cy="92" r="6" fill="#ff9f43"/>
  <circle cx="150" cy="76" r="3.4" fill="#ff5d73"/><circle cx="163" cy="72" r="3.4" fill="#3257f0"/><circle cx="173" cy="80" r="3.4" fill="#1faf6b"/><circle cx="152" cy="90" r="3.4" fill="#ffb300"/>
  <g transform="rotate(40 182 70)"><rect x="178" y="58" width="7" height="26" rx="3" fill="#8a5a3c"/><rect x="178" y="56" width="7" height="7" rx="2" fill="#cbd5e1"/><polygon points="178,84 185,84 181.5,92" fill="#1f2430"/></g>
  <g>
    <rect x="130" y="150" width="60" height="8" rx="3" fill="#fbf6ee"/>
    <rect x="135" y="143" width="50" height="8" rx="3" fill="#ffffff"/>
    <rect x="130" y="156.4" width="60" height="2" rx="1" fill="#ffb300" opacity="0.85"/>
    <rect x="135" y="149.4" width="50" height="2" rx="1" fill="#3257f0" opacity="0.8"/>
  </g>
</svg>
