<svg xmlns="http://www.w3.org/2000/svg" viewBox="0 0 88 88" role="img" aria-label="">
  <defs>
    <linearGradient id="c_english" x1="0" y1="0" x2="1" y2="1"><stop offset="0" stop-color="#52cf96"/><stop offset="1" stop-color="#1faf6b"/></linearGradient>
    <clipPath id="r_english"><rect width="88" height="88" rx="22"/></clipPath>
  </defs>
  <g clip-path="url(#r_english)">
    <rect width="88" height="88" fill="url(#c_english)"/>
    <circle cx="62" cy="20" r="30" fill="#ffffff" opacity="0.14"/>
    <circle cx="44" cy="42" r="25" fill="#ffffff" opacity="0.15"/>
    <g transform="translate(-71.2 -16.48) scale(0.72)"><path d="M160 68 C149 62 134 62 125 66 L125 104 C134 100 149 100 160 106 Z" fill="#ffffff" stroke="#dbe3ea" stroke-width="1.6"/>
  <path d="M160 68 C171 62 186 62 195 66 L195 104 C186 100 171 100 160 106 Z" fill="#eef3f9" stroke="#dbe3ea" stroke-width="1.6"/>
  <line x1="160" y1="68" x2="160" y2="106" stroke="#cbd5e1" stroke-width="2.2"/>
  <g transform="rotate(34 180 64)"><rect x="176" y="48" width="6" height="22" rx="2" fill="#7b54d3"/><polygon points="176,70 182,70 179,77" fill="#3a3a3a"/></g></g>
  </g>
</svg>
