<svg xmlns="http://www.w3.org/2000/svg" viewBox="0 0 88 88" role="img" aria-label="">
  <defs>
    <linearGradient id="c_maths" x1="0" y1="0" x2="1" y2="1"><stop offset="0" stop-color="#ff8a9a"/><stop offset="1" stop-color="#ff5d73"/></linearGradient>
    <clipPath id="r_maths"><rect width="88" height="88" rx="22"/></clipPath>
  </defs>
  <g clip-path="url(#r_maths)">
    <rect width="88" height="88" fill="url(#c_maths)"/>
    <circle cx="62" cy="20" r="30" fill="#ffffff" opacity="0.14"/>
    <circle cx="44" cy="42" r="25" fill="#ffffff" opacity="0.15"/>
    <g transform="translate(-71.2 -16.48) scale(0.72)"><g transform="rotate(-16 160 88)">
    <rect x="116" y="80" width="88" height="15" rx="3" fill="#fbf6ee" stroke="#e2c08a" stroke-width="1.5"/>
    <g stroke="#caa46a" stroke-width="1.4">
      <line x1="130" y1="80" x2="130" y2="88"/><line x1="144" y1="80" x2="144" y2="88"/>
      <line x1="158" y1="80" x2="158" y2="88"/><line x1="172" y1="80" x2="172" y2="88"/><line x1="186" y1="80" x2="186" y2="88"/>
    </g>
  </g>
  <g transform="rotate(38 160 86)">
    <rect x="154" y="60" width="12" height="40" rx="2" fill="#ffd54a"/>
    <rect x="154" y="60" width="12" height="6" fill="#ff9f43"/>
    <rect x="154" y="56" width="12" height="5" rx="2" fill="#ff8aa0"/>
    <polygon points="154,100 166,100 160,112" fill="#f0d9b5"/>
    <polygon points="157,107 163,107 160,112" fill="#3a3a3a"/>
  </g></g>
  </g>
</svg>
