<svg xmlns="http://www.w3.org/2000/svg" viewBox="0 0 320 180" role="img" aria-label="">
  <defs><linearGradient id="s_english" x1="0" y1="0" x2="1" y2="1">
    <stop offset="0" stop-color="#52cf96"/><stop offset="1" stop-color="#1faf6b"/>
  </linearGradient></defs>
  <rect width="320" height="180" fill="url(#s_english)"/>
  <circle cx="270" cy="34" r="58" fill="#ffffff" opacity="0.12"/>
  <circle cx="36" cy="170" r="46" fill="#000000" opacity="0.06"/>
  <g fill="#ffffff" opacity="0.5"><circle cx="52" cy="40" r="2.6"/><circle cx="68" cy="30" r="1.6"/><circle cx="250" cy="150" r="2.3"/><circle cx="236" cy="44" r="1.6"/></g>
  <circle cx="160" cy="84" r="40" fill="#ffffff" opacity="0.16"/>
  <path d="M160 70 C150 64 136 64 127 68 L127 102 C136 98 150 98 160 104 Z" fill="#ffffff" stroke="#dbe3ea" stroke-width="1.5"/>
  <path d="M160 70 C170 64 184 64 193 68 L193 102 C184 98 170 98 160 104 Z" fill="#eef3f9" stroke="#dbe3ea" stroke-width="1.5"/>
  <line x1="160" y1="70" x2="160" y2="104" stroke="#cbd5e1" stroke-width="2"/>
  <g stroke="#cdd7e2" stroke-width="1.2">
    <line x1="135" y1="77" x2="152" y2="75"/><line x1="135" y1="85" x2="152" y2="83"/>
    <line x1="168" y1="75" x2="185" y2="77"/><line x1="168" y1="83" x2="185" y2="85"/>
  </g>
  <g transform="rotate(34 178 66)"><rect x="174" y="52" width="6" height="22" rx="2" fill="#7b54d3"/><polygon points="174,74 180,74 177,80" fill="#3a3a3a"/></g>
  <g>
    <rect x="130" y="150" width="60" height="8" rx="3" fill="#fbf6ee"/>
    <rect x="135" y="143" width="50" height="8" rx="3" fill="#ffffff"/>
    <rect x="130" y="156.4" width="60" height="2" rx="1" fill="#ffb300" opacity="0.85"/>
    <rect x="135" y="149.4" width="50" height="2" rx="1" fill="#3257f0" opacity="0.8"/>
  </g>
</svg>
