<svg xmlns="http://www.w3.org/2000/svg" viewBox="0 0 320 180" role="img" aria-label="">
  <defs><linearGradient id="s_maths" x1="0" y1="0" x2="1" y2="1">
    <stop offset="0" stop-color="#ff8a9a"/><stop offset="1" stop-color="#ff5d73"/>
  </linearGradient></defs>
  <rect width="320" height="180" fill="url(#s_maths)"/>
  <circle cx="270" cy="34" r="58" fill="#ffffff" opacity="0.12"/>
  <circle cx="36" cy="170" r="46" fill="#000000" opacity="0.06"/>
  <g fill="#ffffff" opacity="0.5"><circle cx="52" cy="40" r="2.6"/><circle cx="68" cy="30" r="1.6"/><circle cx="250" cy="150" r="2.3"/><circle cx="236" cy="44" r="1.6"/></g>
  <circle cx="160" cy="84" r="40" fill="#ffffff" opacity="0.16"/>
  <g transform="rotate(-16 160 88)">
    <rect x="116" y="80" width="88" height="15" rx="3" fill="#fbf6ee" stroke="#e2c08a" stroke-width="1.5"/>
    <g stroke="#caa46a" stroke-width="1.4">
      <line x1="130" y1="80" x2="130" y2="88"/><line x1="144" y1="80" x2="144" y2="88"/>
      <line x1="158" y1="80" x2="158" y2="88"/><line x1="172" y1="80" x2="172" y2="88"/><line x1="186" y1="80" x2="186" y2="88"/>
    </g>
  </g>
  <g transform="rotate(38 160 86)">
    <rect x="154" y="60" width="12" height="40" rx="2" fill="#ffd54a"/>
    <rect x="154" y="60" width="12" height="6" fill="#ff9f43"/>
    <rect x="154" y="56" width="12" height="5" rx="2" fill="#ff8aa0"/>
    <polygon points="154,100 166,100 160,112" fill="#f0d9b5"/>
    <polygon points="157,107 163,107 160,112" fill="#3a3a3a"/>
  </g>
  <g>
    <rect x="130" y="150" width="60" height="8" rx="3" fill="#fbf6ee"/>
    <rect x="135" y="143" width="50" height="8" rx="3" fill="#ffffff"/>
    <rect x="130" y="156.4" width="60" height="2" rx="1" fill="#ffb300" opacity="0.85"/>
    <rect x="135" y="149.4" width="50" height="2" rx="1" fill="#3257f0" opacity="0.8"/>
  </g>
</svg>
