<svg xmlns="http://www.w3.org/2000/svg" viewBox="0 0 320 180" role="img" aria-label="">
  <defs><linearGradient id="s_social_science" x1="0" y1="0" x2="1" y2="1">
    <stop offset="0" stop-color="#d59445"/><stop offset="1" stop-color="#b56a16"/>
  </linearGradient></defs>
  <rect width="320" height="180" fill="url(#s_social_science)"/>
  <circle cx="270" cy="34" r="58" fill="#ffffff" opacity="0.12"/>
  <circle cx="36" cy="170" r="46" fill="#000000" opacity="0.06"/>
  <g fill="#ffffff" opacity="0.5"><circle cx="52" cy="40" r="2.6"/><circle cx="68" cy="30" r="1.6"/><circle cx="250" cy="150" r="2.3"/><circle cx="236" cy="44" r="1.6"/></g>
  <circle cx="160" cy="84" r="40" fill="#ffffff" opacity="0.16"/>
  <circle cx="160" cy="80" r="26" fill="#4aa3ff" stroke="#ffffff" stroke-width="2"/>
  <ellipse cx="160" cy="80" rx="10" ry="26" fill="none" stroke="#ffffff" stroke-width="1.6" opacity="0.6"/>
  <line x1="134" y1="80" x2="186" y2="80" stroke="#ffffff" stroke-width="1.6" opacity="0.6"/>
  <path d="M150 72 q8 -4 14 2 q4 6 -4 8 q-10 2 -10 -10 Z" fill="#5ec27a"/>
  <path d="M168 84 q8 0 8 8 q-6 6 -12 0 q-2 -6 4 -8 Z" fill="#5ec27a"/>
  <path d="M150 100 q10 8 22 0 l0 4 q-11 8 -22 0 Z" fill="#c79a5b"/>
  <rect x="158" y="104" width="4" height="8" fill="#a9743a"/>
  <g>
    <rect x="130" y="150" width="60" height="8" rx="3" fill="#fbf6ee"/>
    <rect x="135" y="143" width="50" height="8" rx="3" fill="#ffffff"/>
    <rect x="130" y="156.4" width="60" height="2" rx="1" fill="#ffb300" opacity="0.85"/>
    <rect x="135" y="149.4" width="50" height="2" rx="1" fill="#3257f0" opacity="0.8"/>
  </g>
</svg>
