<svg xmlns="http://www.w3.org/2000/svg" viewBox="0 0 320 180" role="img" aria-label="">
  <defs><linearGradient id="s_science" x1="0" y1="0" x2="1" y2="1">
    <stop offset="0" stop-color="#6f8bff"/><stop offset="1" stop-color="#3257f0"/>
  </linearGradient></defs>
  <rect width="320" height="180" fill="url(#s_science)"/>
  <circle cx="270" cy="34" r="58" fill="#ffffff" opacity="0.12"/>
  <circle cx="36" cy="170" r="46" fill="#000000" opacity="0.06"/>
  <g fill="#ffffff" opacity="0.5"><circle cx="52" cy="40" r="2.6"/><circle cx="68" cy="30" r="1.6"/><circle cx="250" cy="150" r="2.3"/><circle cx="236" cy="44" r="1.6"/></g>
  <circle cx="160" cy="84" r="40" fill="#ffffff" opacity="0.16"/>
  <g fill="none" stroke="#ffffff" stroke-width="2.6">
    <ellipse cx="160" cy="82" rx="29" ry="11"/>
    <ellipse cx="160" cy="82" rx="29" ry="11" transform="rotate(60 160 82)"/>
    <ellipse cx="160" cy="82" rx="29" ry="11" transform="rotate(120 160 82)"/>
  </g>
  <circle cx="160" cy="82" r="5.5" fill="#ffd54a"/>
  <circle cx="189" cy="82" r="3" fill="#ffffff"/><circle cx="146" cy="58" r="3" fill="#ffffff"/>
  <g>
    <rect x="130" y="150" width="60" height="8" rx="3" fill="#fbf6ee"/>
    <rect x="135" y="143" width="50" height="8" rx="3" fill="#ffffff"/>
    <rect x="130" y="156.4" width="60" height="2" rx="1" fill="#ffb300" opacity="0.85"/>
    <rect x="135" y="149.4" width="50" height="2" rx="1" fill="#3257f0" opacity="0.8"/>
  </g>
</svg>
